<?xml version="1.0" encoding="iso-8859-1"?>
<!-- Generator: Adobe Illustrator 19.0.0, SVG Export Plug-In . SVG Version: 6.00 Build 0)  -->
<svg version="1.1" id="Capa_1" xmlns="http://www.w3.org/2000/svg" xmlns:xlink="http://www.w3.org/1999/xlink" x="0px" y="0px"
	 viewBox="0 0 386.612 386.612" style="enable-background:new 0 0 386.612 386.612;" xml:space="preserve">
<circle style="fill:#4DCFE0;" cx="193.306" cy="193.306" r="177.633"/>
<g>
	<path style="fill:#3A2C51;" d="M167.184,261.747c-4.18,0-8.359-1.567-10.971-4.702l-58.514-60.082
		c-6.269-6.269-5.747-16.196,0.522-21.943c6.269-6.269,16.196-5.747,21.943,0.522l47.543,49.11l100.31-95.086
		c6.269-5.747,16.196-5.747,21.943,0.522c5.747,6.269,5.747,16.196-0.522,21.943L178.155,257.567
		C175.02,260.18,170.841,261.747,167.184,261.747z"/>
	<path style="fill:#3A2C51;" d="M193.306,386.612C86.727,386.612,0,299.886,0,193.306S86.727,0,193.306,0
		s193.306,86.727,193.306,193.306S299.886,386.612,193.306,386.612z M193.306,31.347c-89.339,0-161.959,72.62-161.959,161.959
		s72.62,161.959,161.959,161.959s161.959-72.62,161.959-161.959S282.645,31.347,193.306,31.347z"/>
</g>
<g>
</g>
<g>
</g>
<g>
</g>
<g>
</g>
<g>
</g>
<g>
</g>
<g>
</g>
<g>
</g>
<g>
</g>
<g>
</g>
<g>
</g>
<g>
</g>
<g>
</g>
<g>
</g>
<g>
</g>
</svg>
